<svg width="629" height="572" viewBox="0 0 629 572" fill="none" xmlns="http://www.w3.org/2000/svg">
<mask id="mask0_771_1651" style="mask-type:alpha" maskUnits="userSpaceOnUse" x="0" y="0" width="629" height="572">
<rect width="629" height="572" fill="#D9D9D9"/>
</mask>
<g mask="url(#mask0_771_1651)">
<g filter="url(#filter0_d_771_1651)">
<rect x="295" y="25.3999" width="334" height="66.8" rx="10" fill="white"/>
</g>
<path d="M305.02 43.7699C305.02 39.1583 308.758 35.4199 313.37 35.4199H343.43C348.042 35.4199 351.78 39.1583 351.78 43.7699V57.6309V67.4897C351.78 69.7785 350.84 71.967 349.181 73.5434L345.935 76.6272L342.507 79.8837C340.955 81.3579 338.897 82.1799 336.756 82.1799H328.4H313.37C308.758 82.1799 305.02 78.4415 305.02 73.8299V43.7699Z" fill="#111E9B" fill-opacity="0.2"/>
<g clip-path="url(#clip0_771_1651)">
<path opacity="0.2" d="M328.4 64.2276C330.706 64.2276 332.575 62.3584 332.575 60.0526C332.575 57.7468 330.706 55.8776 328.4 55.8776C326.094 55.8776 324.225 57.7468 324.225 60.0526C324.225 62.3584 326.094 64.2276 328.4 64.2276Z" fill="#111E9B"/>
<path opacity="0.2" d="M321.302 57.5476C323.147 57.5476 324.642 56.0522 324.642 54.2076C324.642 52.3629 323.147 50.8676 321.302 50.8676C319.458 50.8676 317.962 52.3629 317.962 54.2076C317.962 56.0522 319.458 57.5476 321.302 57.5476Z" fill="#111E9B"/>
<path opacity="0.2" d="M335.497 57.5476C337.342 57.5476 338.837 56.0522 338.837 54.2076C338.837 52.3629 337.342 50.8676 335.497 50.8676C333.653 50.8676 332.157 52.3629 332.157 54.2076C332.157 56.0522 333.653 57.5476 335.497 57.5476Z" fill="#111E9B"/>
<path d="M328.4 64.2276C330.706 64.2276 332.575 62.3584 332.575 60.0526C332.575 57.7468 330.706 55.8776 328.4 55.8776C326.094 55.8776 324.225 57.7468 324.225 60.0526C324.225 62.3584 326.094 64.2276 328.4 64.2276Z" stroke="#111E9B" stroke-width="1.67" stroke-linecap="round" stroke-linejoin="round"/>
<path d="M335.498 57.5476C336.47 57.5468 337.43 57.7728 338.299 58.2075C339.169 58.6423 339.925 59.2739 340.508 60.0522" stroke="#111E9B" stroke-width="1.67" stroke-linecap="round" stroke-linejoin="round"/>
<path d="M316.292 60.0524C316.875 59.2741 317.632 58.6424 318.501 58.2076C319.371 57.7728 320.33 57.5468 321.303 57.5476" stroke="#111E9B" stroke-width="1.67" stroke-linecap="round" stroke-linejoin="round"/>
<path d="M322.392 67.9849C322.941 66.8583 323.795 65.9086 324.857 65.2442C325.92 64.5798 327.147 64.2275 328.4 64.2275C329.654 64.2275 330.881 64.5798 331.944 65.2442C333.006 65.9086 333.86 66.8583 334.409 67.9849" stroke="#111E9B" stroke-width="1.67" stroke-linecap="round" stroke-linejoin="round"/>
<path d="M321.303 57.5476C320.669 57.5474 320.048 57.367 319.513 57.0274C318.978 56.6878 318.551 56.2029 318.281 55.6295C318.011 55.0561 317.91 54.4177 317.99 53.789C318.069 53.1603 318.326 52.5671 318.73 52.0788C319.134 51.5905 319.668 51.2271 320.271 51.0312C320.873 50.8353 321.519 50.8148 322.133 50.9723C322.747 51.1298 323.304 51.4586 323.737 51.9205C324.171 52.3823 324.465 52.9581 324.584 53.5805" stroke="#111E9B" stroke-width="1.67" stroke-linecap="round" stroke-linejoin="round"/>
<path d="M332.216 53.5806C332.335 52.9581 332.629 52.3822 333.063 51.9203C333.497 51.4583 334.053 51.1294 334.667 50.9719C335.281 50.8143 335.927 50.8347 336.53 51.0307C337.133 51.2266 337.667 51.59 338.071 52.0784C338.475 52.5668 338.732 53.16 338.811 53.7888C338.891 54.4176 338.79 55.0561 338.52 55.6296C338.25 56.2031 337.822 56.6879 337.287 57.0276C336.752 57.3672 336.131 57.5476 335.498 57.5476" stroke="#111E9B" stroke-width="1.67" stroke-linecap="round" stroke-linejoin="round"/>
</g>
<rect x="365.14" y="67.1499" width="250.5" height="10.02" rx="3.34" fill="#111E9B" fill-opacity="0.2"/>
<path d="M365.14 70.4899C365.14 68.6453 366.636 67.1499 368.48 67.1499L499.575 67.1499L499.575 77.1699L368.48 77.1699C366.636 77.1699 365.14 75.6745 365.14 73.8299L365.14 70.4899Z" fill="#111E9B"/>
<path d="M368.553 52.4299L368.553 43.9397L365.273 43.9397L365.273 42.8107L373.022 42.8107L373.022 43.9397L369.742 43.9397L369.742 52.4299L368.553 52.4299ZM376.089 52.6303C375.372 52.6303 374.753 52.4678 374.232 52.1427C373.715 51.8176 373.316 51.3678 373.036 50.7933C372.755 50.2189 372.615 49.5598 372.615 48.8161C372.615 48.059 372.757 47.3954 373.043 46.8254C373.328 46.2554 373.731 45.8123 374.252 45.4961C374.773 45.1755 375.385 45.0151 376.089 45.0151C376.81 45.0151 377.431 45.1777 377.952 45.5028C378.473 45.8234 378.872 46.271 379.148 46.8455C379.429 47.4155 379.569 48.0723 379.569 48.8161C379.569 49.5687 379.429 50.2322 379.148 50.8067C378.867 51.3767 378.467 51.8243 377.946 52.1494C377.425 52.47 376.806 52.6303 376.089 52.6303ZM376.089 51.5014C376.837 51.5014 377.393 51.252 377.759 50.7533C378.124 50.2545 378.306 49.6087 378.306 48.8161C378.306 48.0011 378.122 47.3531 377.752 46.8722C377.382 46.3868 376.828 46.1441 376.089 46.1441C375.585 46.1441 375.171 46.2576 374.846 46.4847C374.521 46.7119 374.278 47.0258 374.118 47.4266C373.958 47.8274 373.878 48.2906 373.878 48.8161C373.878 49.6266 374.065 50.2767 374.439 50.7666C374.813 51.2565 375.363 51.5014 376.089 51.5014ZM385.068 52.4299C384.64 52.5145 384.217 52.5479 383.798 52.5301C383.384 52.5168 383.015 52.4344 382.69 52.283C382.364 52.1271 382.117 51.8866 381.948 51.5615C381.806 51.2765 381.728 50.9893 381.714 50.6998C381.705 50.4059 381.701 50.0741 381.701 49.7045L381.701 43.2115L382.89 43.2115L382.89 49.6511C382.89 49.945 382.892 50.1966 382.897 50.4059C382.906 50.6152 382.952 50.7956 383.037 50.947C383.197 51.232 383.451 51.399 383.798 51.448C384.15 51.497 384.573 51.4836 385.068 51.4079L385.068 52.4299ZM380.238 46.1975L380.238 45.2155L385.068 45.2155L385.068 46.1975L380.238 46.1975ZM388.583 52.6303C388.044 52.6303 387.592 52.5324 387.227 52.3364C386.866 52.136 386.592 51.8733 386.405 51.5482C386.223 51.2231 386.132 50.8668 386.132 50.4794C386.132 50.1008 386.203 49.7735 386.345 49.4974C386.492 49.2169 386.697 48.9853 386.96 48.8027C387.223 48.6157 387.537 48.4687 387.902 48.3618C388.245 48.2683 388.628 48.1881 389.051 48.1213C389.478 48.0501 389.91 47.9855 390.347 47.9276C390.783 47.8697 391.191 47.8141 391.569 47.7606L391.142 48.0078C391.155 47.3665 391.026 46.8922 390.754 46.5849C390.487 46.2777 390.024 46.124 389.365 46.124C388.928 46.124 388.545 46.2242 388.216 46.4246C387.891 46.6206 387.661 46.9412 387.528 47.3865L386.399 47.0459C386.572 46.4135 386.909 45.9169 387.407 45.5562C387.906 45.1955 388.563 45.0151 389.378 45.0151C390.033 45.0151 390.594 45.1331 391.061 45.3692C391.533 45.6007 391.872 45.9526 392.077 46.4246C392.179 46.6473 392.244 46.89 392.27 47.1527C392.297 47.411 392.311 47.6827 392.311 47.9677L392.311 52.4299L391.255 52.4299L391.255 50.6998L391.502 50.8601C391.231 51.4435 390.85 51.8844 390.36 52.1828C389.875 52.4811 389.282 52.6303 388.583 52.6303ZM388.763 51.635C389.191 51.635 389.561 51.5593 389.872 51.4079C390.189 51.252 390.442 51.0494 390.634 50.8C390.825 50.5462 390.95 50.2701 391.008 49.9717C391.075 49.749 391.11 49.5019 391.115 49.2302C391.124 48.9541 391.128 48.7426 391.128 48.5956L391.542 48.776C391.155 48.8294 390.774 48.8806 390.4 48.9296C390.026 48.9786 389.672 49.032 389.338 49.0899C389.004 49.1434 388.703 49.2079 388.436 49.2837C388.24 49.346 388.055 49.4262 387.882 49.5241C387.712 49.6221 387.574 49.749 387.468 49.9049C387.365 50.0563 387.314 50.2456 387.314 50.4727C387.314 50.6686 387.363 50.8557 387.461 51.0338C387.563 51.2119 387.719 51.3567 387.928 51.468C388.142 51.5793 388.421 51.635 388.763 51.635ZM394.181 52.4299L394.181 42.6103L395.37 42.6103L395.37 52.4299L394.181 52.4299ZM403.843 52.6303C403.099 52.6303 402.443 52.4767 401.873 52.1694C401.303 51.8621 400.855 51.4324 400.53 50.8802C400.209 50.3235 400.049 49.6711 400.049 48.9229L400.049 42.8174L401.251 42.8107L401.251 48.8227C401.251 49.277 401.327 49.6733 401.478 50.0118C401.634 50.3458 401.839 50.6241 402.093 50.8468C402.347 51.0694 402.625 51.2364 402.928 51.3478C403.235 51.4547 403.54 51.5081 403.843 51.5081C404.15 51.5081 404.458 51.4524 404.765 51.3411C405.072 51.2298 405.351 51.065 405.6 50.8468C405.854 50.6241 406.056 50.3435 406.208 50.0051C406.359 49.6666 406.435 49.2725 406.435 48.8227L406.435 42.8107L407.637 42.8107L407.637 48.9229C407.637 49.6666 407.475 50.3168 407.15 50.8735C406.829 51.4302 406.384 51.8621 405.814 52.1694C405.244 52.4767 404.587 52.6303 403.843 52.6303ZM412.233 52.6236C411.374 52.6236 410.668 52.4366 410.116 52.0625C409.568 51.684 409.232 51.1563 409.107 50.4794L410.323 50.2857C410.421 50.6775 410.646 50.9893 410.998 51.2209C411.349 51.448 411.786 51.5615 412.307 51.5615C412.801 51.5615 413.189 51.4591 413.469 51.2542C413.75 51.0494 413.89 50.7711 413.89 50.4192C413.89 50.2144 413.843 50.0496 413.75 49.9249C413.656 49.7958 413.462 49.6755 413.169 49.5642C412.879 49.4529 412.44 49.3193 411.853 49.1634C411.216 48.9942 410.715 48.8183 410.35 48.6357C409.984 48.4531 409.724 48.2416 409.568 48.0011C409.412 47.7606 409.334 47.4689 409.334 47.126C409.334 46.7029 409.45 46.3333 409.682 46.0171C409.913 45.6965 410.236 45.4493 410.65 45.2756C411.069 45.102 411.554 45.0151 412.106 45.0151C412.654 45.0151 413.144 45.102 413.576 45.2756C414.008 45.4493 414.355 45.6965 414.618 46.0171C414.885 46.3333 415.043 46.7029 415.092 47.126L413.877 47.3465C413.819 46.959 413.632 46.654 413.315 46.4313C413.004 46.2086 412.601 46.0906 412.106 46.0773C411.639 46.0594 411.258 46.1418 410.964 46.3244C410.675 46.507 410.53 46.7542 410.53 47.0659C410.53 47.2396 410.583 47.3888 410.69 47.5135C410.802 47.6381 411.004 47.7562 411.298 47.8675C411.597 47.9788 412.028 48.1057 412.594 48.2483C413.231 48.4086 413.732 48.5845 414.097 48.776C414.467 48.963 414.729 49.1857 414.885 49.444C415.041 49.6978 415.119 50.0118 415.119 50.3858C415.119 51.0806 414.863 51.6283 414.351 52.0291C413.839 52.4255 413.133 52.6236 412.233 52.6236ZM419.719 52.6303C419.011 52.6303 418.391 52.4745 417.862 52.1627C417.336 51.8465 416.926 51.4079 416.632 50.8468C416.339 50.2812 416.192 49.6221 416.192 48.8695C416.192 48.0812 416.336 47.3999 416.626 46.8254C416.915 46.2465 417.318 45.8011 417.835 45.4894C418.356 45.1732 418.966 45.0151 419.665 45.0151C420.391 45.0151 421.008 45.1821 421.516 45.5161C422.028 45.8501 422.411 46.3266 422.664 46.9456C422.923 47.5647 423.034 48.3017 422.998 49.1567L421.796 49.1567L421.796 48.7292C421.783 47.843 421.602 47.1817 421.255 46.7453C420.908 46.3044 420.391 46.0839 419.705 46.0839C418.97 46.0839 418.412 46.32 418.029 46.792C417.646 47.2641 417.454 47.941 417.454 48.8227C417.454 49.6733 417.646 50.3324 418.029 50.8C418.412 51.2676 418.957 51.5014 419.665 51.5014C420.142 51.5014 420.556 51.3923 420.908 51.1741C421.259 50.9559 421.536 50.6419 421.736 50.2322L422.878 50.6263C422.598 51.2632 422.175 51.7575 421.609 52.1093C421.048 52.4566 420.418 52.6303 419.719 52.6303ZM417.053 49.1567L417.053 48.2015L422.384 48.2015L422.384 49.1567L417.053 49.1567ZM424.486 52.4299L424.486 45.2155L425.548 45.2155L425.548 46.959L425.374 46.7319C425.459 46.5092 425.568 46.3044 425.701 46.1173C425.84 45.9303 425.993 45.7766 426.162 45.6564C426.349 45.505 426.561 45.3892 426.797 45.309C427.033 45.2289 427.273 45.1821 427.518 45.1688C427.763 45.151 427.993 45.1665 428.206 45.2155L428.206 46.3311C427.957 46.2643 427.683 46.2465 427.385 46.2776C427.086 46.3088 426.81 46.4179 426.557 46.605C426.325 46.7697 426.145 46.9701 426.015 47.2062C425.891 47.4422 425.804 47.6983 425.755 47.9744C425.706 48.246 425.681 48.5244 425.681 48.8094L425.681 52.4299L424.486 52.4299ZM431.934 52.6236C431.075 52.6236 430.369 52.4366 429.817 52.0625C429.269 51.684 428.933 51.1563 428.808 50.4794L430.024 50.2856C430.122 50.6775 430.346 50.9893 430.698 51.2208C431.05 51.448 431.487 51.5615 432.008 51.5615C432.502 51.5615 432.889 51.4591 433.17 51.2542C433.45 51.0494 433.591 50.7711 433.591 50.4192C433.591 50.2144 433.544 50.0496 433.45 49.9249C433.357 49.7958 433.163 49.6755 432.869 49.5642C432.58 49.4529 432.141 49.3193 431.553 49.1634C430.917 48.9942 430.416 48.8183 430.05 48.6357C429.685 48.4531 429.425 48.2416 429.269 48.0011C429.113 47.7606 429.035 47.4689 429.035 47.126C429.035 46.7029 429.151 46.3333 429.382 46.0171C429.614 45.6965 429.937 45.4493 430.351 45.2756C430.77 45.102 431.255 45.0151 431.807 45.0151C432.355 45.0151 432.845 45.102 433.277 45.2756C433.709 45.4493 434.056 45.6965 434.319 46.0171C434.586 46.3333 434.744 46.7029 434.793 47.126L433.577 47.3464C433.519 46.959 433.332 46.654 433.016 46.4313C432.705 46.2086 432.302 46.0906 431.807 46.0772C431.34 46.0594 430.959 46.1418 430.665 46.3244C430.375 46.507 430.231 46.7542 430.231 47.0659C430.231 47.2396 430.284 47.3888 430.391 47.5134C430.502 47.6381 430.705 47.7562 430.999 47.8675C431.297 47.9788 431.729 48.1057 432.295 48.2482C432.932 48.4086 433.433 48.5845 433.798 48.776C434.167 48.963 434.43 49.1857 434.586 49.444C434.742 49.6978 434.82 50.0118 434.82 50.3858C434.82 51.0806 434.564 51.6283 434.052 52.0291C433.54 52.4255 432.834 52.6236 431.934 52.6236Z" fill="#0D0E10"/>
<path d="M567.031 52.4299L567.031 44.5676L565.228 45.6698L565.228 43.8929L567.031 42.8107L568.675 42.8107L568.675 52.4299L567.031 52.4299ZM575.214 52.4299L575.214 50.8401L570.952 50.8401L570.952 49.3371L574.032 42.8107L575.869 42.8107L572.789 49.3371L575.214 49.3371L575.214 46.8321L576.844 46.8321L576.844 49.3371L577.746 49.3371L577.746 50.8401L576.844 50.8401L576.844 52.4299L575.214 52.4299ZM582.808 52.6303C582.127 52.6303 581.525 52.4856 581.004 52.1961C580.483 51.9022 580.076 51.4947 579.782 50.9737C579.492 50.4527 579.348 49.8515 579.348 49.1701L579.348 46.0706C579.348 45.3892 579.492 44.788 579.782 44.267C580.076 43.7459 580.483 43.3407 581.004 43.0512C581.525 42.7573 582.127 42.6103 582.808 42.6103C583.489 42.6103 584.088 42.7573 584.605 43.0512C585.126 43.3407 585.533 43.7459 585.827 44.267C586.121 44.788 586.268 45.3892 586.268 46.0706L586.268 49.1701C586.268 49.8515 586.121 50.4527 585.827 50.9737C585.533 51.4947 585.126 51.9022 584.605 52.1961C584.088 52.4856 583.489 52.6303 582.808 52.6303ZM582.808 51.1006C583.146 51.1006 583.454 51.0205 583.73 50.8601C584.006 50.6954 584.224 50.4771 584.384 50.2055C584.545 49.9294 584.625 49.6221 584.625 49.2837L584.625 45.9503C584.625 45.6074 584.545 45.3001 584.384 45.0285C584.224 44.7524 584.006 44.5342 583.73 44.3739C583.454 44.2091 583.146 44.1267 582.808 44.1267C582.47 44.1267 582.162 44.2091 581.886 44.3739C581.61 44.5342 581.392 44.7524 581.231 45.0285C581.071 45.3001 580.991 45.6074 580.991 45.9503L580.991 49.2837C580.991 49.6221 581.071 49.9294 581.231 50.2055C581.392 50.4771 581.61 50.6954 581.886 50.8601C582.162 51.0205 582.47 51.1006 582.808 51.1006ZM588.008 54.1333L588.101 53.4386C588.306 53.4564 588.469 53.4208 588.589 53.3317C588.709 53.2471 588.789 53.1247 588.829 52.9643C588.874 52.8085 588.885 52.6303 588.863 52.4299L588.008 52.4299L588.008 50.7132L589.658 50.7132L589.658 52.4967C589.658 53.0801 589.52 53.521 589.244 53.8194C588.967 54.1177 588.555 54.2224 588.008 54.1333ZM595.305 42.6237C595.933 42.6237 596.499 42.7729 597.002 43.0713C597.505 43.3652 597.901 43.7749 598.191 44.3004C598.485 44.8214 598.632 45.4226 598.632 46.104L598.632 49.0365C598.632 49.7624 598.485 50.397 598.191 50.9403C597.901 51.4791 597.494 51.8955 596.968 52.1895C596.443 52.4834 595.828 52.6303 595.125 52.6303C594.639 52.6303 594.181 52.5479 593.749 52.3832C593.317 52.2139 592.929 51.9557 592.586 51.6083L593.742 50.4794C593.916 50.6798 594.123 50.8379 594.363 50.9537C594.608 51.065 594.862 51.1207 595.125 51.1207C595.499 51.1207 595.826 51.0338 596.107 50.8601C596.387 50.682 596.605 50.4527 596.761 50.1721C596.917 49.8871 596.995 49.582 596.995 49.2569L596.995 47.6604L597.282 47.9811C597.011 48.3017 596.681 48.5533 596.294 48.7359C595.906 48.914 595.499 49.0031 595.071 49.0031C594.47 49.0031 593.936 48.865 593.468 48.5889C593.005 48.3128 592.64 47.9387 592.373 47.4667C592.11 46.9902 591.978 46.4513 591.978 45.8501C591.978 45.2489 592.13 44.7056 592.433 44.2202C592.736 43.7303 593.139 43.3429 593.642 43.0579C594.149 42.7684 594.704 42.6237 595.305 42.6237ZM595.305 44.1601C594.993 44.1601 594.708 44.2358 594.45 44.3872C594.192 44.5386 593.987 44.7435 593.836 45.0018C593.684 45.2556 593.608 45.5384 593.608 45.8501C593.608 46.1619 593.682 46.4469 593.829 46.7052C593.98 46.9635 594.183 47.1683 594.437 47.3197C594.695 47.4711 594.98 47.5469 595.292 47.5469C595.603 47.5469 595.888 47.4711 596.147 47.3197C596.405 47.1683 596.61 46.9635 596.761 46.7052C596.917 46.4469 596.995 46.1619 596.995 45.8501C596.995 45.5473 596.919 45.269 596.768 45.0151C596.617 44.7568 596.412 44.5498 596.153 44.3939C595.9 44.238 595.617 44.1601 595.305 44.1601ZM604.491 52.4299L604.491 50.8401L600.23 50.8401L600.23 49.3371L603.309 42.8107L605.146 42.8107L602.067 49.3371L604.491 49.3371L604.491 46.8321L606.121 46.8321L606.121 49.3371L607.023 49.3371L607.023 50.8401L606.121 50.8401L606.121 52.4299L604.491 52.4299ZM611.771 52.6303C611.134 52.6303 610.569 52.5012 610.074 52.2429C609.58 51.9846 609.193 51.6261 608.912 51.1674C608.632 50.7087 608.491 50.1832 608.491 49.5909C608.491 49.061 608.614 48.5689 608.859 48.1147C609.104 47.6604 609.462 47.2975 609.934 47.0258L609.901 47.5402C609.531 47.2596 609.244 46.9367 609.039 46.5716C608.839 46.2019 608.738 45.7878 608.738 45.3291C608.738 44.7769 608.868 44.2981 609.126 43.8929C609.389 43.4876 609.747 43.1737 610.201 42.951C610.656 42.7239 611.179 42.6103 611.771 42.6103C612.363 42.6103 612.887 42.7239 613.341 42.951C613.8 43.1737 614.158 43.4876 614.416 43.8929C614.679 44.2981 614.811 44.7769 614.811 45.3291C614.811 45.7878 614.713 46.1997 614.517 46.5649C614.325 46.9301 614.033 47.2596 613.642 47.5535L613.635 47.0325C614.098 47.2952 614.452 47.656 614.697 48.1147C614.946 48.5689 615.071 49.061 615.071 49.5909C615.071 50.1832 614.929 50.7087 614.644 51.1674C614.363 51.6261 613.973 51.9846 613.475 52.2429C612.98 52.5012 612.412 52.6303 611.771 52.6303ZM611.771 51.114C612.243 51.114 612.626 50.9848 612.92 50.7265C613.219 50.4682 613.368 50.0897 613.368 49.5909C613.368 49.0922 613.221 48.7136 612.927 48.4553C612.633 48.1926 612.248 48.0612 611.771 48.0612C611.299 48.0612 610.918 48.1926 610.629 48.4553C610.339 48.7136 610.195 49.0922 610.195 49.5909C610.195 50.0897 610.339 50.4682 610.629 50.7265C610.918 50.9848 611.299 51.114 611.771 51.114ZM611.771 46.5315C612.168 46.5315 612.488 46.4335 612.733 46.2376C612.983 46.0372 613.107 45.7343 613.107 45.3291C613.107 44.9238 612.983 44.6232 612.733 44.4273C612.488 44.2269 612.168 44.1267 611.771 44.1267C611.379 44.1267 611.059 44.2269 610.809 44.4273C610.564 44.6232 610.442 44.9238 610.442 45.3291C610.442 45.7343 610.564 46.0372 610.809 46.2376C611.059 46.4335 611.379 46.5315 611.771 46.5315Z" fill="#111E9B"/>
</g>
<defs>
<filter id="filter0_d_771_1651" x="155" y="-114.6" width="654" height="386.8" filterUnits="userSpaceOnUse" color-interpolation-filters="sRGB">
<feFlood flood-opacity="0" result="BackgroundImageFix"/>
<feColorMatrix in="SourceAlpha" type="matrix" values="0 0 0 0 0 0 0 0 0 0 0 0 0 0 0 0 0 0 127 0" result="hardAlpha"/>
<feOffset dx="20" dy="20"/>
<feGaussianBlur stdDeviation="80"/>
<feComposite in2="hardAlpha" operator="out"/>
<feColorMatrix type="matrix" values="0 0 0 0 0 0 0 0 0 0 0 0 0 0 0 0 0 0 0.05 0"/>
<feBlend mode="normal" in2="BackgroundImageFix" result="effect1_dropShadow_771_1651"/>
<feBlend mode="normal" in="SourceGraphic" in2="effect1_dropShadow_771_1651" result="shape"/>
</filter>
<clipPath id="clip0_771_1651">
<rect width="26.72" height="26.72" fill="white" transform="translate(315.04 45.4401)"/>
</clipPath>
</defs>
</svg>
