<svg width="629" height="572" viewBox="0 0 629 572" fill="none" xmlns="http://www.w3.org/2000/svg">
<mask id="mask0_771_1649" style="mask-type:alpha" maskUnits="userSpaceOnUse" x="0" y="0" width="629" height="572">
<rect width="629" height="572" fill="#D9D9D9"/>
</mask>
<g mask="url(#mask0_771_1649)">
<g filter="url(#filter0_d_771_1649)">
<path d="M0 403.244C0 397.721 4.47715 393.244 10 393.244L339 393.244C344.523 393.244 349 397.721 349 403.244L349 562C349 567.523 344.523 572 339 572L10 572C4.47716 572 0 567.523 0 562L0 403.244Z" fill="white"/>
</g>
<rect opacity="0.1" x="50.8254" y="442.992" width="277.845" height="0.843189" fill="#0D0E10"/>
<rect opacity="0.1" x="50.8254" y="473.347" width="277.845" height="0.843189" fill="#0D0E10"/>
<rect opacity="0.1" x="50.8254" y="503.702" width="277.845" height="0.843189" fill="#0D0E10"/>
<rect opacity="0.1" x="50.8254" y="534.057" width="277.845" height="0.843189" fill="#0D0E10"/>
<path d="M24.5641 421.599C23.896 421.599 23.305 421.463 22.7911 421.19C22.2812 420.914 21.8819 420.528 21.5933 420.034C21.3048 419.536 21.1605 418.951 21.1605 418.279V412.889L22.4175 412.883V418.214C22.4175 418.577 22.4788 418.897 22.6014 419.174C22.7239 419.451 22.888 419.682 23.0935 419.868C23.2991 420.054 23.5284 420.194 23.7814 420.289C24.0383 420.384 24.2992 420.431 24.5641 420.431C24.8329 420.431 25.0938 420.384 25.3468 420.289C25.6037 420.19 25.835 420.048 26.0405 419.862C26.2461 419.676 26.4082 419.445 26.5268 419.168C26.6493 418.892 26.7106 418.573 26.7106 418.214V412.883H27.9677V418.279C27.9677 418.947 27.8234 419.53 27.5348 420.028C27.2462 420.526 26.845 420.914 26.3311 421.19C25.8211 421.463 25.2321 421.599 24.5641 421.599ZM33.3791 421.599C32.7664 421.599 32.213 421.495 31.7188 421.285C31.2286 421.072 30.8235 420.769 30.5033 420.378C30.187 419.983 29.9815 419.514 29.8866 418.973L31.1792 418.777C31.3097 419.299 31.5824 419.706 31.9975 419.998C32.4126 420.287 32.8968 420.431 33.4503 420.431C33.7942 420.431 34.1104 420.378 34.399 420.271C34.6876 420.16 34.9188 420.004 35.0928 419.803C35.2707 419.597 35.3596 419.352 35.3596 419.067C35.3596 418.913 35.3319 418.777 35.2766 418.658C35.2252 418.54 35.1521 418.437 35.0572 418.35C34.9663 418.259 34.8536 418.182 34.7192 418.119C34.5888 418.052 34.4445 417.994 34.2864 417.947L32.0983 417.3C31.8849 417.237 31.6674 417.156 31.4461 417.057C31.2247 416.955 31.0211 416.822 30.8353 416.66C30.6535 416.494 30.5052 416.29 30.3906 416.049C30.276 415.804 30.2186 415.508 30.2186 415.16C30.2186 414.634 30.353 414.189 30.6219 413.826C30.8946 413.458 31.2623 413.181 31.7248 412.996C32.1873 412.806 32.7051 412.711 33.2783 412.711C33.8555 412.719 34.3713 412.822 34.8259 413.019C35.2845 413.217 35.664 413.502 35.9644 413.873C36.2688 414.241 36.4783 414.687 36.593 415.213L35.2647 415.439C35.2054 415.118 35.0789 414.844 34.8852 414.614C34.6915 414.381 34.4544 414.203 34.1737 414.081C33.893 413.954 33.5886 413.889 33.2605 413.885C32.9443 413.877 32.6537 413.925 32.3889 414.027C32.128 414.13 31.9185 414.274 31.7603 414.46C31.6062 414.646 31.5291 414.859 31.5291 415.101C31.5291 415.338 31.5983 415.529 31.7366 415.676C31.875 415.822 32.045 415.939 32.2466 416.026C32.4521 416.109 32.6557 416.178 32.8573 416.233L34.4346 416.678C34.6322 416.733 34.8556 416.808 35.1046 416.903C35.3576 416.994 35.6008 417.123 35.834 417.289C36.0712 417.455 36.2668 417.676 36.421 417.953C36.5752 418.225 36.6523 418.569 36.6523 418.984C36.6523 419.415 36.5653 419.795 36.3914 420.123C36.2174 420.447 35.9783 420.72 35.6739 420.941C35.3734 421.159 35.0256 421.323 34.6303 421.433C34.235 421.544 33.8179 421.599 33.3791 421.599ZM38.9324 421.422V412.883H44.3877V414.051H40.1717V416.447H43.6761V417.615H40.1717V420.253H44.3877V421.422H38.9324ZM46.8282 421.422V412.883H50.2792C50.3623 412.883 50.465 412.887 50.5876 412.895C50.7101 412.899 50.8267 412.911 50.9374 412.93C51.4118 413.005 51.8071 413.167 52.1234 413.417C52.4436 413.666 52.6827 413.98 52.8408 414.359C52.999 414.739 53.078 415.158 53.078 415.616C53.078 416.296 52.9041 416.883 52.5562 417.378C52.2083 417.868 51.6865 418.174 50.9908 418.297L50.4868 418.356H48.0675V421.422H46.8282ZM51.8209 421.422L50.1369 417.947L51.3881 417.627L53.2381 421.422H51.8209ZM48.0675 417.182H50.2318C50.3109 417.182 50.3978 417.178 50.4927 417.17C50.5915 417.162 50.6844 417.148 50.7714 417.128C51.0244 417.069 51.228 416.96 51.3822 416.802C51.5363 416.64 51.647 416.454 51.7142 416.245C51.7814 416.035 51.815 415.826 51.815 415.616C51.815 415.407 51.7814 415.199 51.7142 414.994C51.647 414.784 51.5363 414.6 51.3822 414.442C51.228 414.28 51.0244 414.17 50.7714 414.11C50.6844 414.087 50.5915 414.071 50.4927 414.063C50.3978 414.055 50.3109 414.051 50.2318 414.051H48.0675V417.182ZM62.0438 421.599C61.431 421.599 60.8776 421.495 60.3835 421.285C59.8933 421.072 59.4881 420.769 59.1679 420.378C58.8517 419.983 58.6461 419.514 58.5512 418.973L59.8439 418.777C59.9743 419.299 60.2471 419.706 60.6622 419.998C61.0772 420.287 61.5615 420.431 62.1149 420.431C62.4588 420.431 62.7751 420.378 63.0637 420.271C63.3522 420.16 63.5835 420.004 63.7574 419.803C63.9353 419.597 64.0243 419.352 64.0243 419.067C64.0243 418.913 63.9966 418.777 63.9412 418.658C63.8899 418.54 63.8167 418.437 63.7218 418.35C63.6309 418.259 63.5183 418.182 63.3839 418.119C63.2534 418.052 63.1091 417.994 62.951 417.947L60.763 417.3C60.5495 417.237 60.3321 417.156 60.1107 417.057C59.8893 416.955 59.6858 416.822 59.5 416.66C59.3181 416.494 59.1699 416.29 59.0552 416.049C58.9406 415.804 58.8833 415.508 58.8833 415.16C58.8833 414.634 59.0177 414.189 59.2865 413.826C59.5593 413.458 59.9269 413.181 60.3894 412.996C60.8519 412.806 61.3698 412.711 61.943 412.711C62.5201 412.719 63.036 412.822 63.4906 413.019C63.9491 413.217 64.3286 413.502 64.6291 413.873C64.9335 414.241 65.143 414.687 65.2576 415.213L63.9294 415.439C63.8701 415.118 63.7436 414.844 63.5499 414.614C63.3562 414.381 63.119 414.203 62.8383 414.081C62.5577 413.954 62.2533 413.889 61.9252 413.885C61.6089 413.877 61.3184 413.925 61.0535 414.027C60.7926 414.13 60.5831 414.274 60.425 414.46C60.2708 414.646 60.1937 414.859 60.1937 415.101C60.1937 415.338 60.2629 415.529 60.4013 415.676C60.5396 415.822 60.7096 415.939 60.9112 416.026C61.1168 416.109 61.3204 416.178 61.522 416.233L63.0992 416.678C63.2969 416.733 63.5202 416.808 63.7693 416.903C64.0223 416.994 64.2654 417.123 64.4986 417.289C64.7358 417.455 64.9315 417.676 65.0857 417.953C65.2398 418.225 65.3169 418.569 65.3169 418.984C65.3169 419.415 65.2299 419.795 65.056 420.123C64.8821 420.447 64.6429 420.72 64.3385 420.941C64.0381 421.159 63.6902 421.323 63.2949 421.433C62.8996 421.544 62.4826 421.599 62.0438 421.599ZM69.7258 421.422V414.051H66.8855V412.883H73.8054V414.051H70.9651V421.422H69.7258ZM74.9462 421.422L77.7213 412.883H79.5061L82.2811 421.422H80.9944L78.4388 413.63H78.759L76.2329 421.422H74.9462ZM76.3871 419.494V418.332H80.8462V419.494H76.3871ZM85.7837 421.422V414.051H82.9435V412.883H89.8633V414.051H87.023V421.422H85.7837ZM91.8287 421.422V412.883H97.284V414.051H93.068V416.447H96.5724V417.615H93.068V420.253H97.284V421.422H91.8287ZM99.7245 421.422V412.883H100.845L103.94 419.305L107.018 412.883H108.151V421.416H106.976V415.575L104.219 421.422H103.656L100.893 415.575V421.422H99.7245ZM110.828 421.422V412.883H116.284V414.051H112.068V416.447H115.572V417.615H112.068V420.253H116.284V421.422H110.828ZM118.724 421.422V412.883H119.981L124.185 419.228V412.883H125.442V421.422H124.185L119.981 415.071V421.422H118.724ZM130.243 421.422V414.051H127.402V412.883H134.322V414.051H131.482V421.422H130.243Z" fill="#0D0E10"/>
<g clip-path="url(#clip0_771_1649)">
<path d="M313.104 414.956C313.631 414.956 314.057 414.532 314.057 414.008C314.057 413.484 313.631 413.059 313.104 413.059C312.578 413.059 312.151 413.484 312.151 414.008C312.151 414.532 312.578 414.956 313.104 414.956Z" fill="#0D0E10"/>
<path d="M318.505 414.956C319.031 414.956 319.458 414.532 319.458 414.008C319.458 413.484 319.031 413.059 318.505 413.059C317.979 413.059 317.552 413.484 317.552 414.008C317.552 414.532 317.979 414.956 318.505 414.956Z" fill="#0D0E10"/>
<path d="M323.905 414.956C324.431 414.956 324.858 414.532 324.858 414.008C324.858 413.484 324.431 413.059 323.905 413.059C323.379 413.059 322.952 413.484 322.952 414.008C322.952 414.532 323.379 414.956 323.905 414.956Z" fill="#0D0E10"/>
<path d="M313.104 420.648C313.631 420.648 314.057 420.223 314.057 419.699C314.057 419.175 313.631 418.751 313.104 418.751C312.578 418.751 312.151 419.175 312.151 419.699C312.151 420.223 312.578 420.648 313.104 420.648Z" fill="#0D0E10"/>
<path d="M318.505 420.648C319.031 420.648 319.458 420.223 319.458 419.699C319.458 419.175 319.031 418.751 318.505 418.751C317.979 418.751 317.552 419.175 317.552 419.699C317.552 420.223 317.979 420.648 318.505 420.648Z" fill="#0D0E10"/>
<path d="M323.905 420.648C324.431 420.648 324.858 420.223 324.858 419.699C324.858 419.175 324.431 418.751 323.905 418.751C323.379 418.751 322.952 419.175 322.952 419.699C322.952 420.223 323.379 420.648 323.905 420.648Z" fill="#0D0E10"/>
</g>
<path opacity="0.6" d="M24.5938 447.776L27.2266 441.327H23.9026V440.458H28.1973V441.327L25.5697 447.776H24.5938ZM32.2544 447.929C31.8783 447.929 31.5276 447.851 31.2023 447.695C30.8804 447.539 30.6043 447.326 30.3739 447.055C30.1468 446.78 29.9842 446.465 29.8859 446.109L30.755 445.876C30.816 446.116 30.9245 446.324 31.0803 446.501C31.2362 446.673 31.4175 446.809 31.6242 446.907C31.8342 447.002 32.0528 447.05 32.2798 447.05C32.578 447.05 32.8457 446.978 33.0828 446.836C33.3234 446.69 33.5132 446.499 33.6521 446.262C33.791 446.021 33.8605 445.759 33.8605 445.474C33.8605 445.179 33.7876 444.913 33.6419 444.676C33.4996 444.435 33.3082 444.246 33.0676 444.107C32.827 443.968 32.5644 443.898 32.2798 443.898C31.9579 443.898 31.6818 443.966 31.4513 444.102C31.2243 444.234 31.0447 444.396 30.9126 444.59L30.1096 444.285L30.3332 440.458H34.262V441.316H30.7703L31.1718 440.94L30.9838 444.005L30.7855 443.746C30.9888 443.529 31.2311 443.361 31.5123 443.243C31.797 443.124 32.0867 443.065 32.3814 443.065C32.8355 443.065 33.2421 443.172 33.6013 443.385C33.9604 443.595 34.245 443.883 34.4551 444.249C34.6652 444.612 34.7702 445.02 34.7702 445.474C34.7702 445.925 34.655 446.336 34.4246 446.709C34.1942 447.078 33.8876 447.375 33.5047 447.598C33.1252 447.819 32.7084 447.929 32.2544 447.929ZM36.1844 447.776L36.1894 440.458H37.1043V444.93L39.4067 442.287H40.5808L38.1564 445.032L40.8654 447.776H39.5998L37.1043 445.133V447.776H36.1844Z" fill="#0D0E10"/>
<path opacity="0.6" d="M25.9509 478.284C25.5748 478.284 25.2241 478.206 24.8988 478.05C24.5769 477.894 24.3007 477.681 24.0703 477.41C23.8433 477.135 23.6807 476.82 23.5824 476.464L24.4515 476.23C24.5125 476.471 24.6209 476.679 24.7768 476.856C24.9327 477.028 25.1139 477.164 25.3206 477.262C25.5307 477.357 25.7493 477.404 25.9763 477.404C26.2745 477.404 26.5421 477.333 26.7793 477.191C27.0199 477.045 27.2096 476.854 27.3486 476.617C27.4875 476.376 27.5569 476.113 27.5569 475.829C27.5569 475.534 27.4841 475.268 27.3384 475.031C27.1961 474.79 27.0046 474.601 26.7641 474.462C26.5235 474.323 26.2609 474.253 25.9763 474.253C25.6544 474.253 25.3782 474.321 25.1478 474.457C24.9208 474.589 24.7412 474.751 24.6091 474.944L23.806 474.64L24.0297 470.812H27.9585V471.671H24.4668L24.8683 471.295L24.6802 474.36L24.482 474.101C24.6853 473.884 24.9276 473.716 25.2088 473.598C25.4934 473.479 25.7831 473.42 26.0779 473.42C26.532 473.42 26.9386 473.526 27.2977 473.74C27.6569 473.95 27.9415 474.238 28.1516 474.604C28.3617 474.967 28.4667 475.375 28.4667 475.829C28.4667 476.279 28.3515 476.691 28.1211 477.064C27.8907 477.433 27.584 477.73 27.2012 477.953C26.8217 478.174 26.4049 478.284 25.9509 478.284ZM32.3357 478.284C31.8613 478.284 31.4378 478.177 31.0651 477.964C30.6957 477.747 30.4027 477.454 30.1858 477.084C29.9723 476.712 29.8656 476.288 29.8656 475.814V473.13C29.8656 472.656 29.9723 472.232 30.1858 471.859C30.4027 471.487 30.6957 471.194 31.0651 470.98C31.4378 470.767 31.8613 470.66 32.3357 470.66C32.8101 470.66 33.2336 470.767 33.6063 470.98C33.9791 471.194 34.2721 471.487 34.4856 471.859C34.6991 472.232 34.8058 472.656 34.8058 473.13V475.814C34.8058 476.288 34.6991 476.712 34.4856 477.084C34.2721 477.454 33.9791 477.747 33.6063 477.964C33.2336 478.177 32.8101 478.284 32.3357 478.284ZM32.3357 477.415C32.6237 477.415 32.8846 477.345 33.1184 477.206C33.3522 477.067 33.5386 476.881 33.6775 476.647C33.8164 476.41 33.8859 476.149 33.8859 475.864V473.074C33.8859 472.786 33.8164 472.525 33.6775 472.291C33.5386 472.058 33.3522 471.871 33.1184 471.732C32.8846 471.593 32.6237 471.524 32.3357 471.524C32.0511 471.524 31.7902 471.593 31.553 471.732C31.3192 471.871 31.1328 472.058 30.9939 472.291C30.855 472.525 30.7855 472.786 30.7855 473.074V475.864C30.7855 476.149 30.855 476.41 30.9939 476.647C31.1328 476.881 31.3192 477.067 31.553 477.206C31.7902 477.345 32.0511 477.415 32.3357 477.415ZM36.1844 478.131L36.1894 470.812H37.1043V475.285L39.4067 472.642H40.5808L38.1564 475.387L40.8654 478.131H39.5998L37.1043 475.488V478.131H36.1844Z" fill="#0D0E10"/>
<path opacity="0.6" d="M23.5824 508.481L23.5875 507.668L26.8352 504.745C27.1063 504.501 27.2876 504.271 27.3791 504.054C27.4739 503.834 27.5214 503.609 27.5214 503.378C27.5214 503.097 27.457 502.843 27.3282 502.616C27.1995 502.389 27.0233 502.209 26.7996 502.077C26.5794 501.945 26.3287 501.879 26.0474 501.879C25.756 501.879 25.4968 501.948 25.2698 502.087C25.0428 502.223 24.8632 502.404 24.7311 502.631C24.6023 502.858 24.5396 503.105 24.543 503.373H23.618C23.618 502.912 23.7247 502.506 23.9382 502.153C24.1516 501.797 24.4414 501.52 24.8073 501.32C25.1766 501.116 25.5951 501.015 26.0627 501.015C26.5167 501.015 26.9233 501.12 27.2825 501.33C27.6416 501.537 27.9246 501.82 28.1313 502.179C28.3413 502.534 28.4464 502.938 28.4464 503.388C28.4464 503.707 28.4057 503.983 28.3244 504.217C28.2465 504.451 28.1245 504.667 27.9585 504.867C27.7924 505.064 27.584 505.274 27.3333 505.498L24.6345 507.922L24.5176 507.617H28.4464V508.481H23.5824ZM32.2544 508.639C31.8783 508.639 31.5276 508.561 31.2023 508.405C30.8804 508.249 30.6043 508.035 30.3739 507.764C30.1468 507.49 29.9842 507.175 29.8859 506.819L30.755 506.585C30.816 506.826 30.9245 507.034 31.0803 507.21C31.2362 507.383 31.4175 507.519 31.6242 507.617C31.8342 507.712 32.0528 507.759 32.2798 507.759C32.578 507.759 32.8457 507.688 33.0828 507.546C33.3234 507.4 33.5132 507.209 33.6521 506.971C33.791 506.731 33.8605 506.468 33.8605 506.184C33.8605 505.889 33.7876 505.623 33.6419 505.386C33.4996 505.145 33.3082 504.955 33.0676 504.817C32.827 504.678 32.5644 504.608 32.2798 504.608C31.9579 504.608 31.6818 504.676 31.4513 504.811C31.2243 504.944 31.0447 505.106 30.9126 505.299L30.1096 504.994L30.3332 501.167H34.262V502.026H30.7703L31.1718 501.65L30.9838 504.715L30.7855 504.456C30.9888 504.239 31.2311 504.071 31.5123 503.952C31.797 503.834 32.0867 503.775 32.3814 503.775C32.8355 503.775 33.2421 503.881 33.6013 504.095C33.9604 504.305 34.245 504.593 34.4551 504.959C34.6652 505.321 34.7702 505.73 34.7702 506.184C34.7702 506.634 34.655 507.046 34.4246 507.419C34.1942 507.788 33.8876 508.085 33.5047 508.308C33.1252 508.528 32.7084 508.639 32.2544 508.639ZM36.1844 508.486L36.1894 501.167H37.1043V505.64L39.4067 502.997H40.5808L38.1564 505.742L40.8654 508.486H39.5998L37.1043 505.843V508.486H36.1844Z" fill="#0D0E10"/>
<path opacity="0.6" d="M37.5175 538.993C37.0431 538.993 36.6196 538.887 36.2469 538.673C35.8775 538.456 35.5844 538.163 35.3676 537.794C35.1541 537.421 35.0474 536.998 35.0474 536.523V533.84C35.0474 533.365 35.1541 532.942 35.3676 532.569C35.5844 532.196 35.8775 531.903 36.2469 531.69C36.6196 531.476 37.0431 531.37 37.5175 531.37C37.9919 531.37 38.4154 531.476 38.7881 531.69C39.1608 531.903 39.4539 532.196 39.6674 532.569C39.8809 532.942 39.9876 533.365 39.9876 533.84V536.523C39.9876 536.998 39.8809 537.421 39.6674 537.794C39.4539 538.163 39.1608 538.456 38.7881 538.673C38.4154 538.887 37.9919 538.993 37.5175 538.993ZM37.5175 538.124C37.8055 538.124 38.0664 538.055 38.3002 537.916C38.534 537.777 38.7204 537.591 38.8593 537.357C38.9982 537.12 39.0677 536.859 39.0677 536.574V533.784C39.0677 533.496 38.9982 533.235 38.8593 533.001C38.7204 532.767 38.534 532.581 38.3002 532.442C38.0664 532.303 37.8055 532.234 37.5175 532.234C37.2329 532.234 36.972 532.303 36.7348 532.442C36.501 532.581 36.3146 532.767 36.1757 533.001C36.0368 533.235 35.9673 533.496 35.9673 533.784V536.574C35.9673 536.859 36.0368 537.12 36.1757 537.357C36.3146 537.591 36.501 537.777 36.7348 537.916C36.972 538.055 37.2329 538.124 37.5175 538.124Z" fill="#0D0E10"/>
<path opacity="0.6" d="M64.1804 554.018V546.699H65.0038L67.7687 552.529L70.5183 546.699H71.3519V554.013H70.4929V548.687L68.0076 554.018H67.5247L65.0394 548.687V554.018H64.1804Z" fill="#0D0E10"/>
<path opacity="0.6" d="M107.977 554.018V547.558H105.481V546.699H111.377V547.558H108.881V554.018H107.977Z" fill="#0D0E10"/>
<path opacity="0.6" d="M146.535 554.018L144.416 546.699H145.361L146.988 552.488L148.609 546.704L149.559 546.699L151.186 552.488L152.807 546.699H153.757L151.638 554.018H150.733L149.087 548.28L147.44 554.018H146.535Z" fill="#0D0E10"/>
<path opacity="0.6" d="M189.297 554.018V547.558H186.802V546.699H192.698V547.558H190.202V554.018H189.297Z" fill="#0D0E10"/>
<path opacity="0.6" d="M228.529 554.018V546.699H232.798V547.604H229.434V549.906H232.188V550.811H229.434V554.018H228.529Z" fill="#0D0E10"/>
<path opacity="0.6" d="M271.176 554.171C270.657 554.171 270.19 554.083 269.773 553.906C269.359 553.73 269.017 553.479 268.746 553.154C268.478 552.825 268.304 552.438 268.223 551.99L269.158 551.843C269.276 552.304 269.522 552.665 269.895 552.925C270.271 553.183 270.713 553.312 271.221 553.312C271.55 553.312 271.846 553.261 272.111 553.159C272.378 553.054 272.59 552.905 272.746 552.712C272.902 552.519 272.98 552.29 272.98 552.026C272.98 551.863 272.951 551.724 272.893 551.609C272.839 551.49 272.763 551.391 272.665 551.309C272.57 551.224 272.461 551.153 272.339 551.096C272.217 551.038 272.09 550.991 271.958 550.953L270.093 550.399C269.89 550.338 269.693 550.262 269.503 550.171C269.314 550.076 269.144 549.959 268.995 549.82C268.846 549.678 268.727 549.508 268.639 549.312C268.551 549.112 268.507 548.876 268.507 548.605C268.507 548.172 268.619 547.802 268.843 547.497C269.07 547.189 269.376 546.953 269.763 546.791C270.149 546.628 270.584 546.549 271.069 546.552C271.56 546.555 271.999 546.643 272.385 546.816C272.775 546.986 273.097 547.23 273.351 547.548C273.608 547.867 273.781 548.248 273.869 548.692L272.909 548.859C272.858 548.561 272.744 548.305 272.568 548.092C272.395 547.875 272.178 547.709 271.918 547.594C271.657 547.475 271.37 547.414 271.059 547.411C270.76 547.408 270.491 547.455 270.251 547.553C270.01 547.651 269.819 547.789 269.676 547.965C269.534 548.138 269.463 548.338 269.463 548.565C269.463 548.788 269.527 548.97 269.656 549.108C269.785 549.244 269.942 549.352 270.129 549.434C270.318 549.512 270.503 549.576 270.683 549.627L272.075 550.028C272.234 550.072 272.417 550.133 272.624 550.211C272.834 550.289 273.037 550.399 273.234 550.542C273.43 550.681 273.593 550.867 273.722 551.101C273.851 551.331 273.915 551.623 273.915 551.975C273.915 552.327 273.844 552.641 273.702 552.915C273.563 553.19 273.368 553.42 273.117 553.607C272.866 553.789 272.575 553.928 272.243 554.023C271.911 554.122 271.555 554.171 271.176 554.171Z" fill="#0D0E10"/>
<path opacity="0.6" d="M311.835 554.171C311.317 554.171 310.849 554.083 310.433 553.906C310.019 553.73 309.677 553.479 309.406 553.154C309.138 552.825 308.964 552.438 308.883 551.99L309.818 551.843C309.936 552.304 310.182 552.665 310.555 552.925C310.931 553.183 311.373 553.312 311.881 553.312C312.21 553.312 312.506 553.261 312.771 553.159C313.038 553.054 313.25 552.905 313.406 552.712C313.562 552.519 313.64 552.29 313.64 552.026C313.64 551.863 313.611 551.724 313.553 551.609C313.499 551.49 313.423 551.391 313.325 551.309C313.23 551.224 313.121 551.153 312.999 551.096C312.877 551.038 312.75 550.991 312.618 550.953L310.753 550.399C310.55 550.338 310.353 550.262 310.163 550.171C309.974 550.076 309.804 549.959 309.655 549.82C309.506 549.678 309.387 549.508 309.299 549.312C309.211 549.112 309.167 548.876 309.167 548.605C309.167 548.172 309.279 547.802 309.503 547.497C309.73 547.189 310.036 546.953 310.423 546.791C310.809 546.628 311.244 546.549 311.729 546.552C312.22 546.555 312.659 546.643 313.045 546.816C313.435 546.986 313.757 547.23 314.011 547.548C314.268 547.867 314.441 548.248 314.529 548.692L313.569 548.859C313.518 548.561 313.404 548.305 313.228 548.092C313.055 547.875 312.838 547.709 312.578 547.594C312.317 547.475 312.03 547.414 311.719 547.411C311.42 547.408 311.151 547.455 310.91 547.553C310.67 547.651 310.478 547.789 310.336 547.965C310.194 548.138 310.123 548.338 310.123 548.565C310.123 548.788 310.187 548.97 310.316 549.108C310.445 549.244 310.602 549.352 310.788 549.434C310.978 549.512 311.163 549.576 311.342 549.627L312.735 550.028C312.894 550.072 313.077 550.133 313.284 550.211C313.494 550.289 313.697 550.399 313.894 550.542C314.09 550.681 314.253 550.867 314.382 551.101C314.511 551.331 314.575 551.623 314.575 551.975C314.575 552.327 314.504 552.641 314.361 552.915C314.223 553.19 314.028 553.42 313.777 553.607C313.526 553.789 313.235 553.928 312.903 554.023C312.571 554.122 312.215 554.171 311.835 554.171Z" fill="#0D0E10"/>
<path d="M55 493.838C55 489.972 58.134 486.838 62 486.838H72C75.866 486.838 79 489.972 79 493.838V534.057H56C55.4477 534.057 55 533.609 55 533.057V493.838Z" fill="#111E9B"/>
<path d="M55 528.938C55 526.177 57.2386 523.938 60 523.938H74C76.7614 523.938 79 526.177 79 528.938V534.057H55V528.938Z" fill="#0D0E10"/>
<path d="M95.6597 466.856C95.6597 462.99 98.7937 459.856 102.66 459.856H112.66C116.526 459.856 119.66 462.99 119.66 466.856V534.057H96.6597C96.1074 534.057 95.6597 533.609 95.6597 533.057V466.856Z" fill="#111E9B"/>
<path d="M95.6597 522.193C95.6597 519.432 97.8982 517.193 100.66 517.193H114.66C117.421 517.193 119.66 519.432 119.66 522.193V534.057H95.6597V522.193Z" fill="#0D0E10"/>
<path d="M136.32 503.956C136.32 500.09 139.454 496.956 143.32 496.956H153.32C157.186 496.956 160.32 500.09 160.32 503.956V534.057H137.32C136.768 534.057 136.32 533.609 136.32 533.057V503.956Z" fill="#111E9B"/>
<path d="M136.32 531.468C136.32 528.707 138.559 526.468 141.32 526.468H155.32C158.082 526.468 160.32 528.707 160.32 531.468V534.057H136.32V531.468Z" fill="#0D0E10"/>
<path d="M176.98 460.111C176.98 456.245 180.114 453.111 183.98 453.111H193.98C197.846 453.111 200.98 456.245 200.98 460.111V534.057H177.98C177.428 534.057 176.98 533.609 176.98 533.057V460.111Z" fill="#111E9B"/>
<path d="M176.98 518.82C176.98 516.059 179.219 513.82 181.98 513.82H195.98C198.741 513.82 200.98 516.059 200.98 518.82V534.057H176.98V518.82Z" fill="#0D0E10"/>
<path d="M217.641 490.465C217.641 486.599 220.775 483.465 224.641 483.465H234.641C238.507 483.465 241.641 486.599 241.641 490.465V534.057H218.641C218.089 534.057 217.641 533.609 217.641 533.057V490.465Z" fill="#111E9B"/>
<path d="M217.641 527.252C217.641 524.491 219.88 522.252 222.641 522.252H236.641C239.403 522.252 241.641 524.491 241.641 527.252V534.057H217.641V527.252Z" fill="#0D0E10"/>
<path d="M298.96 503.956C298.96 500.09 302.094 496.956 305.96 496.956H315.96C319.826 496.956 322.96 500.09 322.96 503.956V534.057H299.96C299.408 534.057 298.96 533.609 298.96 533.057V503.956Z" fill="#111E9B"/>
<path d="M298.96 530.625C298.96 527.863 301.199 525.625 303.96 525.625H317.96C320.722 525.625 322.96 527.863 322.96 530.625V534.057H298.96V530.625Z" fill="#0D0E10"/>
<path d="M258.301 470.229C258.301 466.363 261.435 463.229 265.301 463.229H275.301C279.167 463.229 282.301 466.363 282.301 470.229V534.057H259.301C258.748 534.057 258.301 533.609 258.301 533.057V470.229Z" fill="#111E9B"/>
<path d="M258.301 523.879C258.301 521.118 260.539 518.879 263.301 518.879H277.301C280.062 518.879 282.301 521.118 282.301 523.879V534.057H258.301V523.879Z" fill="#0D0E10"/>
</g>
<defs>
<filter id="filter0_d_771_1649" x="-140" y="253.244" width="669" height="498.756" filterUnits="userSpaceOnUse" color-interpolation-filters="sRGB">
<feFlood flood-opacity="0" result="BackgroundImageFix"/>
<feColorMatrix in="SourceAlpha" type="matrix" values="0 0 0 0 0 0 0 0 0 0 0 0 0 0 0 0 0 0 127 0" result="hardAlpha"/>
<feOffset dx="20" dy="20"/>
<feGaussianBlur stdDeviation="80"/>
<feComposite in2="hardAlpha" operator="out"/>
<feColorMatrix type="matrix" values="0 0 0 0 0 0 0 0 0 0 0 0 0 0 0 0 0 0 0.05 0"/>
<feBlend mode="normal" in2="BackgroundImageFix" result="effect1_dropShadow_771_1649"/>
<feBlend mode="normal" in="SourceGraphic" in2="effect1_dropShadow_771_1649" result="shape"/>
</filter>
<clipPath id="clip0_771_1649">
<rect width="20.3301" height="20.2365" fill="white" transform="translate(308.34 406.735)"/>
</clipPath>
</defs>
</svg>
