<svg width="1533" height="801" viewBox="0 0 1533 801" fill="none" xmlns="http://www.w3.org/2000/svg">
<g filter="url(#filter0_d_762_1399)">
<path d="M32.7455 593.01C30.6506 591.211 27.4938 591.45 25.6947 593.545C23.8956 595.64 24.1353 598.797 26.2302 600.596L32.7455 593.01ZM359.371 742.657L360.98 747.391L360.98 747.391L359.371 742.657ZM1502.86 13.1064C1505.6 13.4913 1508.13 11.5866 1508.51 8.85212C1508.9 6.11765 1506.99 3.5889 1504.26 3.20399L1502.86 13.1064ZM26.2302 600.596C62.3089 631.581 122.155 676.075 184.602 708.951C215.825 725.389 247.858 739.007 278.003 746.537C308.086 754.051 336.767 755.621 360.98 747.391L357.762 737.923C336.109 745.283 309.587 744.118 280.426 736.835C251.327 729.566 220.073 716.324 189.26 700.102C127.633 667.658 68.4051 623.635 32.7455 593.01L26.2302 600.596ZM360.98 747.391C390.79 737.258 414.48 717.571 435.922 693.482C457.272 669.495 476.828 640.607 497.906 612.051C540.275 554.65 589.761 497.171 676.731 473.766L674.133 464.11C583.718 488.441 532.508 548.333 489.86 606.113C468.429 635.148 449.397 663.302 428.452 686.833C407.598 710.262 385.287 728.567 357.762 737.923L360.98 747.391ZM676.731 473.766C720.275 462.049 761.283 462.302 800.621 465.966C820.324 467.801 839.505 470.48 858.455 472.931C877.349 475.376 895.981 477.59 914.311 478.435C951.031 480.126 986.846 476.338 1022 457.766C1057.12 439.21 1091.06 406.175 1124.6 350.329L1116.03 345.18C1083.1 399.993 1050.37 431.469 1017.33 448.924C984.319 466.364 950.482 470.09 914.771 468.445C896.887 467.621 878.609 465.456 859.738 463.014C840.922 460.58 821.483 457.866 801.549 456.009C761.613 452.289 719.282 451.96 674.133 464.11L676.731 473.766ZM1124.6 350.329C1191.31 239.264 1240.1 148.528 1295.53 88.5082C1323.11 58.6343 1352.12 36.6466 1385.5 23.6807C1418.86 10.7249 1456.94 6.64149 1502.86 13.1064L1504.26 3.20399C1456.94 -3.45672 1417.1 0.682165 1381.88 14.3591C1346.7 28.0259 1316.47 51.0814 1288.18 81.7239C1231.84 142.737 1182.25 234.926 1116.03 345.18L1124.6 350.329Z" fill="#E34D5A"/>
</g>
<defs>
<filter id="filter0_d_762_1399" x="0.487793" y="0.0849609" width="1532.07" height="800.818" filterUnits="userSpaceOnUse" color-interpolation-filters="sRGB">
<feFlood flood-opacity="0" result="BackgroundImageFix"/>
<feColorMatrix in="SourceAlpha" type="matrix" values="0 0 0 0 0 0 0 0 0 0 0 0 0 0 0 0 0 0 127 0" result="hardAlpha"/>
<feOffset dy="24"/>
<feGaussianBlur stdDeviation="12"/>
<feComposite in2="hardAlpha" operator="out"/>
<feColorMatrix type="matrix" values="0 0 0 0 0.854167 0 0 0 0 0.249132 0 0 0 0 0.357057 0 0 0 1 0"/>
<feBlend mode="normal" in2="BackgroundImageFix" result="effect1_dropShadow_762_1399"/>
<feBlend mode="normal" in="SourceGraphic" in2="effect1_dropShadow_762_1399" result="shape"/>
</filter>
</defs>
</svg>
